<svg width="24" height="24" viewBox="0 0 32 32" fill="none" xmlns="http://www.w3.org/2000/svg">
<g clip-path="url(#clip0_11_133)">
<path fill-rule="evenodd" clip-rule="evenodd" d="M15.5152 28.1212C15.5152 28.1212 12.4819 22.2798 11.6364 20.3636L27.2243 5.60386L15.5152 28.1212ZM3.87879 15.5151L26.1818 4.84848L10.6667 19.3939C10.6628 19.3901 3.87879 15.5151 3.87879 15.5151ZM30.0606 0.96969C28.9396 1.51563 0 15.5151 0 15.5151C0 15.5151 9.74739 21.3905 9.69697 21.3333C9.68048 21.3149 15.5152 32 15.5152 32C15.5152 32 30.7879 2.42424 31.0303 1.93939C31.2427 1.33333 30.7879 0.667144 30.0606 0.96969Z" fill="white"/>
</g>
<defs>
<clipPath id="clip0_11_133">
<rect width="32" height="32" fill="white"/>
</clipPath>
</defs>
</svg>
