<svg width="60" height="60" viewBox="0 0 60 60" fill="none" xmlns="http://www.w3.org/2000/svg">
<circle cx="30" cy="30" r="30" fill="#D9D9D9"/>
<g clip-path="url(#clip0_23_177)">
<path d="M42.3251 38.1433L37.6575 33.4756C36.6859 32.5041 35.1106 32.503 34.1379 33.4756L32.7785 34.835C29.6725 32.9382 27.063 30.3287 25.1661 27.2226L26.6566 25.7322C27.6269 24.7618 27.6269 23.1829 26.6566 22.2125L21.9889 17.5449C21.0201 16.5761 19.447 16.5671 18.4664 17.5478L15.5332 20.5038C14.1299 21.6821 13.6362 23.6169 14.2762 25.4506C17.5604 34.8616 25.1396 42.4408 34.5506 45.7249C36.3213 46.3427 38.1395 45.8807 39.2956 44.6896C39.3123 44.6749 39.3286 44.6596 39.3445 44.6436L42.3251 41.6629C43.2955 40.6926 43.2955 39.1138 42.3251 38.1433ZM40.8383 40.1761L37.925 43.0893C37.8894 43.1188 37.8558 43.1509 37.8242 43.1853C37.211 43.8518 36.2246 44.0819 35.2436 43.7394C26.4324 40.6648 19.3365 33.5688 16.2617 24.7576C15.9097 23.7488 16.1637 22.7036 16.9089 22.0948C16.9372 22.0716 16.9643 22.047 16.9901 22.0211L19.9562 19.0318C20.0546 18.9334 20.1695 18.9187 20.2292 18.9187C20.2889 18.9187 20.4037 18.9333 20.5021 19.0318L25.1696 23.6994C25.3201 23.8499 25.3201 24.0947 25.1697 24.2452L23.1045 26.3104C22.7707 26.6441 22.7002 27.1593 22.9321 27.5704C25.1732 31.5435 28.4577 34.8281 32.4308 37.069C32.8418 37.3009 33.357 37.2304 33.6908 36.8967L35.6249 34.9626C35.7754 34.8121 36.0199 34.8119 36.1707 34.9626L40.8383 39.6303C40.9887 39.7808 40.9887 40.0256 40.8383 40.1761Z" fill="black"/>
<path d="M30.8064 22.2083C30.2257 22.2083 29.7549 22.679 29.7549 23.2597C29.7549 23.8404 30.2256 24.3111 30.8064 24.3111C33.4993 24.3111 35.6901 26.5019 35.6901 29.1948C35.6901 29.7755 36.1608 30.2463 36.7415 30.2463C37.3222 30.2463 37.7929 29.7755 37.7929 29.1948C37.7929 25.3424 34.6588 22.2083 30.8064 22.2083Z" fill="black"/>
<path d="M30.8064 18.0815C30.2257 18.0815 29.7549 18.5523 29.7549 19.1329C29.7549 19.7136 30.2256 20.1844 30.8064 20.1844C35.7748 20.1844 39.8168 24.2264 39.8168 29.1948C39.8168 29.7755 40.2876 30.2463 40.8683 30.2463C41.4489 30.2463 41.9197 29.7755 41.9197 29.1948C41.9197 23.067 36.9343 18.0815 30.8064 18.0815Z" fill="black"/>
<path d="M41.5499 18.4513C38.6803 15.5816 34.8647 14.0012 30.8063 14.0012C30.2256 14.0012 29.7549 14.4719 29.7549 15.0526C29.7549 15.6333 30.2256 16.1041 30.8063 16.1041C38.0247 16.1041 43.8972 21.9766 43.8972 29.1949C43.8972 29.7756 44.3679 30.2463 44.9486 30.2463C45.5293 30.2463 46.0001 29.7756 46.0001 29.1949C46 25.1364 44.4196 21.321 41.5499 18.4513Z" fill="black"/>
</g>
<defs>
<clipPath id="clip0_23_177">
<rect width="32" height="32" fill="white" transform="translate(14 14)"/>
</clipPath>
</defs>
</svg>
