<svg width="60" height="60" viewBox="0 0 60 60" fill="none" xmlns="http://www.w3.org/2000/svg">
<circle cx="30" cy="30" r="30" fill="#D9D9D9"/>
<path d="M18 21C17.45 21 17 21.45 17 22V23.3813L27.7812 32.2313C29.075 33.2938 30.9313 33.2938 32.225 32.2313L43 23.3813V22C43 21.45 42.55 21 42 21H18ZM17 27.2625V38C17 38.55 17.45 39 18 39H42C42.55 39 43 38.55 43 38V27.2625L34.125 34.55C31.725 36.5187 28.2687 36.5187 25.875 34.55L17 27.2625ZM14 22C14 19.7938 15.7938 18 18 18H42C44.2062 18 46 19.7938 46 22V38C46 40.2062 44.2062 42 42 42H18C15.7938 42 14 40.2062 14 38V22Z" fill="black"/>
</svg>
