<svg width="60" height="60" viewBox="0 0 60 60" fill="none" xmlns="http://www.w3.org/2000/svg">
<circle cx="30" cy="30" r="30" fill="#D9D9D9"/>
<path d="M37.9734 28.3867V33.72C37.9734 34.0667 37.96 34.4 37.92 34.72C37.6134 38.32 35.4934 40.1067 31.5867 40.1067H31.0534C30.72 40.1067 30.4 40.2667 30.2 40.5333L28.6 42.6667C27.8934 43.6133 26.7467 43.6133 26.04 42.6667L24.44 40.5333C24.2667 40.3067 23.88 40.1067 23.5867 40.1067H23.0534C18.8 40.1067 16.6667 39.0533 16.6667 33.72V28.3867C16.6667 24.48 18.4667 22.36 22.0534 22.0533C22.3734 22.0133 22.7067 22 23.0534 22H31.5867C35.84 22 37.9734 24.1333 37.9734 28.3867Z" stroke="#292D32" stroke-width="1.5" stroke-miterlimit="10" stroke-linecap="round" stroke-linejoin="round"/>
<path d="M43.3067 23.0533V28.3867C43.3067 32.3067 41.5067 34.4133 37.92 34.72C37.96 34.4 37.9734 34.0667 37.9734 33.72V28.3867C37.9734 24.1333 35.84 22 31.5867 22H23.0534C22.7067 22 22.3734 22.0133 22.0534 22.0533C22.3601 18.4667 24.4801 16.6667 28.3867 16.6667H36.92C41.1734 16.6667 43.3067 18.8 43.3067 23.0533Z" stroke="#292D32" stroke-width="1.5" stroke-miterlimit="10" stroke-linecap="round" stroke-linejoin="round"/>
<path d="M31.994 31.6667H32.006" stroke="#292D32" stroke-width="2" stroke-linecap="round" stroke-linejoin="round"/>
<path d="M27.3273 31.6667H27.3393" stroke="#292D32" stroke-width="2" stroke-linecap="round" stroke-linejoin="round"/>
<path d="M22.6607 31.6667H22.6727" stroke="#292D32" stroke-width="2" stroke-linecap="round" stroke-linejoin="round"/>
</svg>
