<svg width="60" height="60" viewBox="0 0 60 60" fill="none" xmlns="http://www.w3.org/2000/svg">
<circle cx="30" cy="30" r="30" fill="#D9D9D9"/>
<path d="M44.395 20.362C44.283 20.291 44.147 20.249 44 20.249C43.878 20.249 43.762 20.279 43.66 20.331L43.664 20.329L36.726 23.797C36.62 22.371 35.439 21.254 33.997 21.249H18.001C16.483 21.251 15.253 22.481 15.251 23.999V36C15.253 37.518 16.483 38.748 18.001 38.75H33.997C35.44 38.745 36.62 37.628 36.726 36.212L36.727 36.203L43.666 39.671C43.763 39.721 43.877 39.751 43.999 39.751H44.002H44.004C44.417 39.751 44.752 39.416 44.752 39.003V39.001V21.001C44.752 20.733 44.611 20.498 44.4 20.365L44.397 20.363L44.395 20.362ZM35.246 36C35.245 36.69 34.686 37.249 33.996 37.25H18C17.31 37.249 16.751 36.69 16.75 36V23.999C16.751 23.309 17.31 22.75 18 22.749H33.996C34.686 22.75 35.245 23.309 35.246 23.999V36ZM43.25 37.787L36.746 34.537V25.464L43.25 22.213V37.787Z" fill="black"/>
</svg>
