<svg width="32" height="32" viewBox="0 0 32 32" fill="none" xmlns="http://www.w3.org/2000/svg">
<g clip-path="url(#clip0_23_152)">
<path d="M12 6.66667H9.33333C8.59695 6.66667 8 7.26362 8 8V24C8 24.7364 8.59695 25.3333 9.33333 25.3333H12C12.7364 25.3333 13.3333 24.7364 13.3333 24V8C13.3333 7.26362 12.7364 6.66667 12 6.66667Z" stroke="#33363F" stroke-width="2" stroke-linecap="round"/>
<path d="M22.6667 6.66667H20C19.2636 6.66667 18.6667 7.26362 18.6667 8V24C18.6667 24.7364 19.2636 25.3333 20 25.3333H22.6667C23.4031 25.3333 24 24.7364 24 24V8C24 7.26362 23.4031 6.66667 22.6667 6.66667Z" stroke="#33363F" stroke-width="2" stroke-linecap="round"/>
</g>
<defs>
<clipPath id="clip0_23_152">
<rect width="32" height="32" fill="white"/>
</clipPath>
</defs>
</svg>
